<?xml version="1.0" encoding="utf-8"?>
<!-- Generator: Adobe Illustrator 21.1.0, SVG Export Plug-In . SVG Version: 6.00 Build 0)  -->
<svg version="1.1" xmlns="http://www.w3.org/2000/svg" xmlns:xlink="http://www.w3.org/1999/xlink" x="0px" y="0px"
	 viewBox="0 0 500 200" style="enable-background:new 0 0 500 200;" xml:space="preserve">
<style type="text/css">
	.st0{
		fill:#ffffff;
		-webkit-animation: fondo .5s forwards 1.75s;
		-moz-animation: fondo .5s forwards 1.75s;
		-o-animation: fondo .5s forwards 1.75s;
		animation: fondo .5s forwards 1.75s;
		}
	.st1{
		fill:transparent;
		-webkit-animation: texto 1s forwards 2s;
		-moz-animation: texto 1s forwards 2s;
		-o-animation: texto 1s forwards 2s;
		animation: texto 1s forwards 2s;
		}
	.st2{
		fill:none;
		stroke:#000000;
		stroke-width:1;
		stroke-dasharray:2100;
		stroke-dashoffset:0;
		stroke-miterlimit:10;
		-webkit-animation: animacion 6s forwards;
		-moz-animation: animacion 6s forwards;
		-o-animation: animacion 6s forwards;
		animation: animacion 6s forwards;
		}


@-webkit-keyframes animacion {from{stroke-dashoffset:2300;}to{stroke-dashoffset:0;stroke-width:0;}}
@keyframes animacion {from{stroke-dashoffset:2300;}to{stroke-dashoffset:0;stroke-width:0;}}

@-webkit-keyframes fondo{from{fill:transparent;}to{fill:#10361A;}}
@keyframes fondo{from{fill:transparent;}to{fill:#10361A;}}

@-webkit-keyframes texto{from{fill:transparent;}to{fill:#ffffff;}}
@keyframes texto{from{fill:transparent;}to{fill:#ffffff;}}
</style>

<rect id="fondo" class="st0" width="500" height="199.8"/>
<g id="texto">
		<g>
			<path class="st1" d="M270,122.1c3.3,0,4.6,1.1,5.3,1.7l-0.7,1.2c-0.7-0.5-1.9-1.5-4.6-1.5c-3.8,0-7.1,2.3-7.1,7.5
				c0,5.1,2.9,7.4,6.9,7.4c2.8,0,4.2-0.9,4.9-1.5l0.6,1.2c-0.7,0.6-2.2,1.7-5.5,1.7c-4.7,0-8.4-2.7-8.4-8.8
				C261.4,124.7,265.5,122.1,270,122.1z"/>
			<path class="st1" d="M294.8,139.4h-1.6l-2.3-6h-7.4l-2.3,6h-1.5l6.8-17.1h1.6L294.8,139.4z M287.2,124L287.2,124l-3.2,8.2h6.4
				L287.2,124z"/>
			<path class="st1" d="M318.3,139.4h-1.5v-14.1h0l-6.6,14.1h-1.4l-6.7-14.1h0v14.1h-1.5v-17.1h1.8l7.1,15.1h0.1l7.1-15.1h1.7V139.4
				z"/>
			<path class="st1" d="M330.4,133h-3.3v6.4h-1.5v-17.1h4.8c4.9,0,7.2,1.7,7.2,5.2C337.6,131.1,335.2,133,330.4,133z M330.3,123.7
				h-3.2v8h3.3c3.9,0,5.7-1.5,5.7-4.1C336.1,125.1,334.3,123.7,330.3,123.7z"/>
			<path class="st1" d="M357.4,131.9c0,5.3-2.3,7.8-6.9,7.8c-4.8,0-7-2.4-7-7.8v-9.6h1.5v9.5c0,4.5,1.8,6.5,5.6,6.5
				c3.7,0,5.5-1.9,5.5-6.5v-9.5h1.5V131.9z"/>
			<path class="st1" d="M374.1,124.7c-0.6-0.5-2-1.3-4.3-1.3c-2.7,0-4.4,1-4.4,2.9c0,1.9,1.6,2.6,4.8,3.7c3.5,1.2,5.3,2.4,5.3,5
				c0,2.8-2.2,4.7-6.3,4.7c-3,0-4.7-1-5.5-1.7l0.6-1.3c0.7,0.6,2.4,1.6,4.9,1.6c3.2,0,4.8-1.2,4.8-3.1c0-2-1.5-2.8-4.7-3.9
				c-3.3-1.1-5.4-2.2-5.4-4.9c0-2.7,2.4-4.4,5.9-4.4c2.8,0,4.2,0.9,4.9,1.4L374.1,124.7z"/>
			<path class="st1" d="M400.9,124.7c-0.7-0.5-2-1.3-4.3-1.3c-2.7,0-4.4,1-4.4,2.9c0,1.9,1.6,2.6,4.8,3.7c3.5,1.2,5.3,2.4,5.3,5
				c0,2.8-2.2,4.7-6.3,4.7c-3,0-4.7-1-5.5-1.7l0.6-1.3c0.7,0.6,2.4,1.6,4.9,1.6c3.1,0,4.8-1.2,4.8-3.1c0-2-1.5-2.8-4.7-3.9
				c-3.3-1.1-5.4-2.2-5.4-4.9c0-2.7,2.4-4.4,5.9-4.4c2.8,0,4.2,0.9,4.9,1.4L400.9,124.7z"/>
			<path class="st1" d="M422.4,131.9c0,5.3-2.2,7.8-7,7.8c-4.7,0-7-2.4-7-7.8v-9.6h1.5v9.5c0,4.5,1.8,6.5,5.6,6.5
				c3.7,0,5.5-1.9,5.5-6.5v-9.5h1.4V131.9z"/>
			<path class="st1" d="M440.5,139.4l-4.7-6.9c-0.4,0-0.9,0.1-1.3,0.1h-3.3v6.9h-1.5v-17.1h4.9c4.8,0,7.1,1.6,7.1,5
				c0,2.4-1.4,4.2-4.2,4.9l4.9,7.2H440.5z M434.5,123.7h-3.4v7.5h3.3c3.9,0,5.7-1.5,5.7-3.9C440.1,124.9,438.3,123.7,434.5,123.7z"
				/>
		</g>
		<rect x="249.1" y="51.8" class="st1" width="1.2" height="96.2"/>
		<g>
			<path class="st1" d="M277.6,71.2c0,6.1-2.6,9.1-8.1,9.1c-5.5,0-8.1-2.8-8.1-9.1V60.1h1.7v11c0,5.2,2.1,7.5,6.4,7.5
				c4.2,0,6.3-2.3,6.3-7.5v-11h1.7V71.2z"/>
			<path class="st1" d="M298.1,79.9h-1.7L284,63.1h0v16.7h-1.7V60.1h1.7l12.5,16.7h0V60.1h1.7V79.9z"/>
			<path class="st1" d="M305,79.9h-1.8V60.1h1.8V79.9z"/>
			<path class="st1" d="M317.9,79.9h-1.8l-7.9-19.8h1.9l6.9,17.8h0.1l6.9-17.8h1.8L317.9,79.9z"/>
			<path class="st1" d="M341.1,61.6h-10.7v7.4h9.8v1.5h-9.8v7.7h11v1.5h-12.8V60.1h12.5V61.6z"/>
			<path class="st1" d="M357.3,79.9l-5.4-8c-0.5,0-1,0.1-1.6,0.1h-3.8v7.9h-1.8V60.1h5.7c5.6,0,8.2,1.9,8.2,5.8
				c0,2.8-1.7,4.9-4.9,5.7l5.7,8.3H357.3z M350.4,61.6h-3.9v8.7h3.8c4.5,0,6.6-1.7,6.6-4.5C356.8,63.1,354.8,61.6,350.4,61.6z"/>
			<path class="st1" d="M373.5,62.8c-0.7-0.5-2.3-1.5-5-1.5c-3.1,0-5.1,1.2-5.1,3.4c0,2.3,1.8,3.1,5.5,4.2c4.1,1.4,6.2,2.8,6.2,5.8
				c0,3.2-2.5,5.4-7.3,5.4c-3.5,0-5.5-1.2-6.4-1.9l0.7-1.5c0.8,0.7,2.7,1.8,5.6,1.8c3.6,0,5.6-1.4,5.6-3.6c0-2.3-1.7-3.3-5.4-4.5
				c-3.8-1.2-6.2-2.6-6.2-5.7c0-3.2,2.7-5,6.9-5c3.2,0,4.9,1.1,5.7,1.7L373.5,62.8z"/>
			<path class="st1" d="M380.8,79.9H379V60.1h1.8V79.9z"/>
			<path class="st1" d="M391.3,79.9h-5.4V60.1h5.4c7.5,0,12,2.8,12,9.7C403.3,76.7,398.8,79.9,391.3,79.9z M391.3,61.6h-3.7v16.7
				h3.7c6.5,0,10.2-2.6,10.2-8.5C401.6,64.1,397.8,61.6,391.3,61.6z"/>
			<path class="st1" d="M421.9,79.9h-1.9l-2.7-6.9h-8.6l-2.7,6.9h-1.8l7.9-19.8h1.8L421.9,79.9z M413.1,62L413.1,62l-3.8,9.5h7.5
				L413.1,62z"/>
			<path class="st1" d="M430.3,79.9h-5.4V60.1h5.4c7.5,0,12,2.8,12,9.7C442.3,76.7,437.8,79.9,430.3,79.9z M430.3,61.6h-3.7v16.7
				h3.7c6.5,0,10.2-2.6,10.2-8.5C440.5,64.1,436.7,61.6,430.3,61.6z"/>
		</g>
		<g>
			<path class="st1" d="M268.5,114.1h-7.1V88.2h7.1c9.8,0,15.7,3.7,15.7,12.7C284.2,110,278.4,114.1,268.5,114.1z M268.5,90.3h-4.8
				v21.8h4.8c8.4,0,13.4-3.4,13.4-11.1C281.9,93.5,277,90.3,268.5,90.3z"/>
			<path class="st1" d="M305.2,90.3h-14v9.7h12.8v2h-12.8v10.1h14.4v2h-16.7V88.2h16.3V90.3z"/>
			<path class="st1" d="M312.1,112.1h14.4v2h-16.7V88.2h2.3V112.1z"/>
			<path class="st1" d="M349,114.1h-2.3l-10.3-25.9h2.5l9,23.2h0.1l9.1-23.2h2.4L349,114.1z"/>
			<path class="st1" d="M381.5,114.1h-2.4l-3.5-9h-11.2l-3.5,9h-2.3l10.4-25.9h2.4L381.5,114.1z M370,90.7L370,90.7l-4.9,12.5h9.8
				L370,90.7z"/>
			<path class="st1" d="M387.6,112.1h14.4v2h-16.7V88.2h2.3V112.1z"/>
			<path class="st1" d="M407.7,112.1h14.4v2h-16.7V88.2h2.3V112.1z"/>
			<path class="st1" d="M441.8,90.3h-14v9.7h12.8v2h-12.8v10.1h14.4v2h-16.7V88.2h16.3V90.3z"/>
		</g>
		<g>
			<path class="st1" d="M116,103c0,20.1-9.1,31.1-29.1,31.1c-20.4,0-29.2-10-29.2-31.1V66.5h13.6v36.9c0,12.9,5.3,18.8,15.9,18.8
				c10.4,0,15.6-5.8,15.6-18.8V66.5H116V103z"/>
			<path class="st1" d="M157.4,133h-14l-25.2-66.4h14.6l17.6,50.7h0.2l17.7-50.7h14.2L157.4,133z"/>
			<path class="st1" d="M215.2,65.4c13.6,0,19.8,4.7,23,7.2l-5.5,10.2c-3-2.2-7.6-5.5-17-5.5c-12.2,0-22.7,6.6-22.7,22.4
				c0,15.6,9.1,22.5,22.2,22.5c3.7,0,6.9-0.4,9.5-1.1v-15h-11.1V95.6h23.8v32c-3.2,2.4-9.4,6.6-23.1,6.6c-19.7,0-35.2-9.9-35.2-34.3
				C179.2,76.2,196.4,65.4,215.2,65.4z"/>
		</g>
</g>

<g id="border">
	<rect id="borderbackground" class="st2" width="500" height="199.8"/>
	<g id="bordertext">
		<g>
			<path class="st2" d="M270,122.1c3.3,0,4.6,1.1,5.3,1.7l-0.7,1.2c-0.7-0.5-1.9-1.5-4.6-1.5c-3.8,0-7.1,2.3-7.1,7.5
				c0,5.1,2.9,7.4,6.9,7.4c2.8,0,4.2-0.9,4.9-1.5l0.6,1.2c-0.7,0.6-2.2,1.7-5.5,1.7c-4.7,0-8.4-2.7-8.4-8.8
				C261.4,124.7,265.5,122.1,270,122.1z"/>
			<path class="st2" d="M294.8,139.4h-1.6l-2.3-6h-7.4l-2.3,6h-1.5l6.8-17.1h1.6L294.8,139.4z M287.2,124L287.2,124l-3.2,8.2h6.4
				L287.2,124z"/>
			<path class="st2" d="M318.3,139.4h-1.5v-14.1h0l-6.6,14.1h-1.4l-6.7-14.1h0v14.1h-1.5v-17.1h1.8l7.1,15.1h0.1l7.1-15.1h1.7V139.4
				z"/>
			<path class="st2" d="M330.4,133h-3.3v6.4h-1.5v-17.1h4.8c4.9,0,7.2,1.7,7.2,5.2C337.6,131.1,335.2,133,330.4,133z M330.3,123.7
				h-3.2v8h3.3c3.9,0,5.7-1.5,5.7-4.1C336.1,125.1,334.3,123.7,330.3,123.7z"/>
			<path class="st2" d="M357.4,131.9c0,5.3-2.3,7.8-6.9,7.8c-4.8,0-7-2.4-7-7.8v-9.6h1.5v9.5c0,4.5,1.8,6.5,5.6,6.5
				c3.7,0,5.5-1.9,5.5-6.5v-9.5h1.5V131.9z"/>
			<path class="st2" d="M374.1,124.7c-0.6-0.5-2-1.3-4.3-1.3c-2.7,0-4.4,1-4.4,2.9c0,1.9,1.6,2.6,4.8,3.7c3.5,1.2,5.3,2.4,5.3,5
				c0,2.8-2.2,4.7-6.3,4.7c-3,0-4.7-1-5.5-1.7l0.6-1.3c0.7,0.6,2.4,1.6,4.9,1.6c3.2,0,4.8-1.2,4.8-3.1c0-2-1.5-2.8-4.7-3.9
				c-3.3-1.1-5.4-2.2-5.4-4.9c0-2.7,2.4-4.4,5.9-4.4c2.8,0,4.2,0.9,4.9,1.4L374.1,124.7z"/>
			<path class="st2" d="M400.9,124.7c-0.7-0.5-2-1.3-4.3-1.3c-2.7,0-4.4,1-4.4,2.9c0,1.9,1.6,2.6,4.8,3.7c3.5,1.2,5.3,2.4,5.3,5
				c0,2.8-2.2,4.7-6.3,4.7c-3,0-4.7-1-5.5-1.7l0.6-1.3c0.7,0.6,2.4,1.6,4.9,1.6c3.1,0,4.8-1.2,4.8-3.1c0-2-1.5-2.8-4.7-3.9
				c-3.3-1.1-5.4-2.2-5.4-4.9c0-2.7,2.4-4.4,5.9-4.4c2.8,0,4.2,0.9,4.9,1.4L400.9,124.7z"/>
			<path class="st2" d="M422.4,131.9c0,5.3-2.2,7.8-7,7.8c-4.7,0-7-2.4-7-7.8v-9.6h1.5v9.5c0,4.5,1.8,6.5,5.6,6.5
				c3.7,0,5.5-1.9,5.5-6.5v-9.5h1.4V131.9z"/>
			<path class="st2" d="M440.5,139.4l-4.7-6.9c-0.4,0-0.9,0.1-1.3,0.1h-3.3v6.9h-1.5v-17.1h4.9c4.8,0,7.1,1.6,7.1,5
				c0,2.4-1.4,4.2-4.2,4.9l4.9,7.2H440.5z M434.5,123.7h-3.4v7.5h3.3c3.9,0,5.7-1.5,5.7-3.9C440.1,124.9,438.3,123.7,434.5,123.7z"
				/>
		</g>
		<rect x="249.1" y="51.8" class="st2" width="1.2" height="96.2"/>
		<g>
			<path class="st2" d="M277.6,71.2c0,6.1-2.6,9.1-8.1,9.1c-5.5,0-8.1-2.8-8.1-9.1V60.1h1.7v11c0,5.2,2.1,7.5,6.4,7.5
				c4.2,0,6.3-2.3,6.3-7.5v-11h1.7V71.2z"/>
			<path class="st2" d="M298.1,79.9h-1.7L284,63.1h0v16.7h-1.7V60.1h1.7l12.5,16.7h0V60.1h1.7V79.9z"/>
			<path class="st2" d="M305,79.9h-1.8V60.1h1.8V79.9z"/>
			<path class="st2" d="M317.9,79.9h-1.8l-7.9-19.8h1.9l6.9,17.8h0.1l6.9-17.8h1.8L317.9,79.9z"/>
			<path class="st2" d="M341.1,61.6h-10.7v7.4h9.8v1.5h-9.8v7.7h11v1.5h-12.8V60.1h12.5V61.6z"/>
			<path class="st2" d="M357.3,79.9l-5.4-8c-0.5,0-1,0.1-1.6,0.1h-3.8v7.9h-1.8V60.1h5.7c5.6,0,8.2,1.9,8.2,5.8
				c0,2.8-1.7,4.9-4.9,5.7l5.7,8.3H357.3z M350.4,61.6h-3.9v8.7h3.8c4.5,0,6.6-1.7,6.6-4.5C356.8,63.1,354.8,61.6,350.4,61.6z"/>
			<path class="st2" d="M373.5,62.8c-0.7-0.5-2.3-1.5-5-1.5c-3.1,0-5.1,1.2-5.1,3.4c0,2.3,1.8,3.1,5.5,4.2c4.1,1.4,6.2,2.8,6.2,5.8
				c0,3.2-2.5,5.4-7.3,5.4c-3.5,0-5.5-1.2-6.4-1.9l0.7-1.5c0.8,0.7,2.7,1.8,5.6,1.8c3.6,0,5.6-1.4,5.6-3.6c0-2.3-1.7-3.3-5.4-4.5
				c-3.8-1.2-6.2-2.6-6.2-5.7c0-3.2,2.7-5,6.9-5c3.2,0,4.9,1.1,5.7,1.7L373.5,62.8z"/>
			<path class="st2" d="M380.8,79.9H379V60.1h1.8V79.9z"/>
			<path class="st2" d="M391.3,79.9h-5.4V60.1h5.4c7.5,0,12,2.8,12,9.7C403.3,76.7,398.8,79.9,391.3,79.9z M391.3,61.6h-3.7v16.7
				h3.7c6.5,0,10.2-2.6,10.2-8.5C401.6,64.1,397.8,61.6,391.3,61.6z"/>
			<path class="st2" d="M421.9,79.9h-1.9l-2.7-6.9h-8.6l-2.7,6.9h-1.8l7.9-19.8h1.8L421.9,79.9z M413.1,62L413.1,62l-3.8,9.5h7.5
				L413.1,62z"/>
			<path class="st2" d="M430.3,79.9h-5.4V60.1h5.4c7.5,0,12,2.8,12,9.7C442.3,76.7,437.8,79.9,430.3,79.9z M430.3,61.6h-3.7v16.7
				h3.7c6.5,0,10.2-2.6,10.2-8.5C440.5,64.1,436.7,61.6,430.3,61.6z"/>
		</g>
		<g>
			<path class="st2" d="M268.5,114.1h-7.1V88.2h7.1c9.8,0,15.7,3.7,15.7,12.7C284.2,110,278.4,114.1,268.5,114.1z M268.5,90.3h-4.8
				v21.8h4.8c8.4,0,13.4-3.4,13.4-11.1C281.9,93.5,277,90.3,268.5,90.3z"/>
			<path class="st2" d="M305.2,90.3h-14v9.7h12.8v2h-12.8v10.1h14.4v2h-16.7V88.2h16.3V90.3z"/>
			<path class="st2" d="M312.1,112.1h14.4v2h-16.7V88.2h2.3V112.1z"/>
			<path class="st2" d="M349,114.1h-2.3l-10.3-25.9h2.5l9,23.2h0.1l9.1-23.2h2.4L349,114.1z"/>
			<path class="st2" d="M381.5,114.1h-2.4l-3.5-9h-11.2l-3.5,9h-2.3l10.4-25.9h2.4L381.5,114.1z M370,90.7L370,90.7l-4.9,12.5h9.8
				L370,90.7z"/>
			<path class="st2" d="M387.6,112.1h14.4v2h-16.7V88.2h2.3V112.1z"/>
			<path class="st2" d="M407.7,112.1h14.4v2h-16.7V88.2h2.3V112.1z"/>
			<path class="st2" d="M441.8,90.3h-14v9.7h12.8v2h-12.8v10.1h14.4v2h-16.7V88.2h16.3V90.3z"/>
		</g>
		<g>
			<path class="st2" d="M116,103c0,20.1-9.1,31.1-29.1,31.1c-20.4,0-29.2-10-29.2-31.1V66.5h13.6v36.9c0,12.9,5.3,18.8,15.9,18.8
				c10.4,0,15.6-5.8,15.6-18.8V66.5H116V103z"/>
			<path class="st2" d="M157.4,133h-14l-25.2-66.4h14.6l17.6,50.7h0.2l17.7-50.7h14.2L157.4,133z"/>
			<path class="st2" d="M215.2,65.4c13.6,0,19.8,4.7,23,7.2l-5.5,10.2c-3-2.2-7.6-5.5-17-5.5c-12.2,0-22.7,6.6-22.7,22.4
				c0,15.6,9.1,22.5,22.2,22.5c3.7,0,6.9-0.4,9.5-1.1v-15h-11.1V95.6h23.8v32c-3.2,2.4-9.4,6.6-23.1,6.6c-19.7,0-35.2-9.9-35.2-34.3
				C179.2,76.2,196.4,65.4,215.2,65.4z"/>
		</g>
	</g>
</g>
</svg>
